<svg width="21" height="22" viewBox="0 0 21 22" fill="none" xmlns="http://www.w3.org/2000/svg">
<path d="M2.56543 17.413V5.86957C2.56543 5.69949 2.633 5.53637 2.75326 5.4161C2.87353 5.29584 3.03665 5.22827 3.20673 5.22827H7.48208C7.62083 5.22827 7.75585 5.27328 7.86686 5.35653L10.09 7.02392C10.201 7.10717 10.3361 7.15218 10.4748 7.15218H16.0328C16.2028 7.15218 16.366 7.21974 16.4862 7.34001C16.6065 7.46028 16.6741 7.62339 16.6741 7.79348V9.71738" stroke="#454545" stroke-width="1.2826" stroke-linecap="round" stroke-linejoin="round"/>
<path d="M2.56543 17.4131L4.96939 11.4033C5.01699 11.2843 5.09915 11.1822 5.20529 11.1104C5.31142 11.0385 5.43665 11.0001 5.56482 11.0001H9.42558C9.55219 11.0001 9.67596 10.9627 9.78131 10.8924L11.3821 9.82524C11.4874 9.75501 11.6112 9.71753 11.7378 9.71753H18.3495C18.4511 9.71753 18.5513 9.74168 18.6417 9.78798C18.7322 9.83428 18.8104 9.90142 18.8698 9.98386C18.9292 10.0663 18.9682 10.1617 18.9835 10.2621C18.9988 10.3626 18.99 10.4652 18.9579 10.5616L16.6741 17.4131H2.56543Z" stroke="#454545" stroke-width="1.2826" stroke-linecap="round" stroke-linejoin="round"/>
</svg>
