<svg width="25" height="24" viewBox="0 0 25 24" fill="none" xmlns="http://www.w3.org/2000/svg">
<g id="Bubble_Ellipsis_Right_Fill-7ce6d3b3">
<path id="Vector" fill-rule="evenodd" clip-rule="evenodd" d="M1.37012 10.75C1.37012 5.64 6.31012 1.75 12.3701 1.75C18.4301 1.75 23.3701 5.64 23.3701 10.75C23.3701 13.565 21.7751 16.12 19.7101 18.15C17.671 20.111 15.2697 21.6565 12.6401 22.7C12.5265 22.7439 12.4039 22.7594 12.2829 22.7452C12.1619 22.731 12.0462 22.6876 11.9457 22.6187C11.8453 22.5497 11.7632 22.4574 11.7064 22.3496C11.6497 22.2418 11.6201 22.1218 11.6201 22V19.48C5.93512 19.2 1.37012 15.67 1.37012 10.75ZM7.37012 12.5C7.5671 12.5 7.76215 12.4612 7.94414 12.3858C8.12613 12.3104 8.29149 12.1999 8.43078 12.0607C8.57007 11.9214 8.68055 11.756 8.75594 11.574C8.83132 11.392 8.87012 11.197 8.87012 11C8.87012 10.803 8.83132 10.608 8.75594 10.426C8.68055 10.244 8.57007 10.0786 8.43078 9.93934C8.29149 9.80005 8.12613 9.68956 7.94414 9.61418C7.76215 9.5388 7.5671 9.5 7.37012 9.5C6.97229 9.5 6.59076 9.65804 6.30946 9.93934C6.02815 10.2206 5.87012 10.6022 5.87012 11C5.87012 11.3978 6.02815 11.7794 6.30946 12.0607C6.59076 12.342 6.97229 12.5 7.37012 12.5ZM12.3701 12.5C12.5671 12.5 12.7622 12.4612 12.9441 12.3858C13.1261 12.3104 13.2915 12.1999 13.4308 12.0607C13.5701 11.9214 13.6806 11.756 13.7559 11.574C13.8313 11.392 13.8701 11.197 13.8701 11C13.8701 10.803 13.8313 10.608 13.7559 10.426C13.6806 10.244 13.5701 10.0786 13.4308 9.93934C13.2915 9.80005 13.1261 9.68956 12.9441 9.61418C12.7622 9.5388 12.5671 9.5 12.3701 9.5C11.9723 9.5 11.5908 9.65804 11.3095 9.93934C11.0282 10.2206 10.8701 10.6022 10.8701 11C10.8701 11.3978 11.0282 11.7794 11.3095 12.0607C11.5908 12.342 11.9723 12.5 12.3701 12.5ZM18.8701 11C18.8701 11.3978 18.7121 11.7794 18.4308 12.0607C18.1495 12.342 17.7679 12.5 17.3701 12.5C16.9723 12.5 16.5908 12.342 16.3095 12.0607C16.0282 11.7794 15.8701 11.3978 15.8701 11C15.8701 10.6022 16.0282 10.2206 16.3095 9.93934C16.5908 9.65804 16.9723 9.5 17.3701 9.5C17.7679 9.5 18.1495 9.65804 18.4308 9.93934C18.7121 10.2206 18.8701 10.6022 18.8701 11Z" fill="#BFBFBF"/>
</g>
</svg>
