<svg width="15" height="14" viewBox="0 0 15 14" fill="none" xmlns="http://www.w3.org/2000/svg">
<g id="Clip path group">
<mask id="mask0_1256_3403" style="mask-type:luminance" maskUnits="userSpaceOnUse" x="0" y="0" width="15" height="14">
<g id="Icon_Color-Verified_Badge_svg__a">
<path id="Vector" d="M0.47998 0H14.48V14H0.47998V0Z" fill="white"/>
</g>
</mask>
<g mask="url(#mask0_1256_3403)">
<g id="Group">
<path id="Vector_2" d="M0.47998 7C0.47998 5.14348 1.21748 3.36301 2.53023 2.05025C3.84299 0.737498 5.62347 0 7.47998 0C9.3365 0 11.117 0.737498 12.4297 2.05025C13.7425 3.36301 14.48 5.14348 14.48 7C14.48 8.85651 13.7425 10.637 12.4297 11.9497C11.117 13.2625 9.3365 14 7.47998 14C5.62347 14 3.84299 13.2625 2.53023 11.9497C1.21748 10.637 0.47998 8.85651 0.47998 7Z" fill="#200C70"/>
<path id="Vector_3" fill-rule="evenodd" clip-rule="evenodd" d="M11.3068 4.63187C11.4707 4.79594 11.5627 5.01833 11.5627 5.25021C11.5627 5.48208 11.4707 5.70448 11.3068 5.86854L7.36933 9.80604C7.20526 9.9699 6.98287 10.0619 6.75099 10.0619C6.51912 10.0619 6.29672 9.9699 6.13266 9.80604L3.65349 7.32687C3.56753 7.24677 3.49857 7.15017 3.45075 7.04283C3.40292 6.9355 3.37721 6.81964 3.37514 6.70215C3.37306 6.58466 3.39468 6.46796 3.43868 6.35901C3.48269 6.25006 3.54819 6.15108 3.63128 6.068C3.71437 5.98491 3.81334 5.9194 3.9223 5.8754C4.03125 5.83139 4.14795 5.80978 4.26544 5.81185C4.38292 5.81392 4.49879 5.83964 4.60612 5.88746C4.71345 5.93529 4.81005 6.00424 4.89016 6.09021L6.75099 7.95104L10.0702 4.63187C10.2342 4.46801 10.4566 4.37598 10.6885 4.37598C10.9204 4.37598 11.1428 4.46801 11.3068 4.63187Z" fill="white"/>
</g>
</g>
</g>
</svg>
