<svg width="24" height="24" viewBox="0 0 24 24" fill="none" xmlns="http://www.w3.org/2000/svg">
<g id="SVG">
<path id="Vector" d="M9.49483 2C10.8209 2 12.0927 2.52678 13.0304 3.46447C13.968 4.40215 14.4948 5.67392 14.4948 7C14.4948 8.32608 13.968 9.59785 13.0304 10.5355C12.0927 11.4732 10.8209 12 9.49483 12C8.16875 12 6.89698 11.4732 5.9593 10.5355C5.02162 9.59785 4.49483 8.32608 4.49483 7C4.49483 5.67392 5.02162 4.40215 5.9593 3.46447C6.89698 2.52678 8.16875 2 9.49483 2ZM9.49483 4C8.69852 4 7.93482 4.31633 7.37174 4.87941C6.80867 5.44249 6.49233 6.20619 6.49233 7.0025C6.49233 7.79881 6.80867 8.56251 7.37174 9.12559C7.93482 9.68867 8.69852 10.005 9.49483 10.005C9.88913 10.0053 10.2796 9.92799 10.644 9.7774C11.0084 9.62682 11.3396 9.40593 11.6187 9.12736C11.8977 8.84878 12.1191 8.51797 12.2703 8.15382C12.4215 7.78966 12.4995 7.39929 12.4998 7.005C12.5002 6.61071 12.4228 6.22021 12.2722 5.8558C12.1217 5.4914 11.9008 5.16022 11.6222 4.88118C11.3436 4.60214 11.0128 4.3807 10.6487 4.22951C10.2845 4.07832 9.89413 4.00033 9.49983 4H9.49483ZM9.49483 13.5C10.9748 13.5 12.2948 13.79 13.4298 14.325L11.8948 15.855C11.1187 15.6104 10.3086 15.4906 9.49483 15.5C5.44983 15.5 3.14983 18.08 2.99983 22C2.98983 22.275 2.76983 22.5 2.48983 22.5H1.48983C1.21483 22.5 0.989833 22.275 0.999833 22C1.16483 16.995 4.34983 13.5 9.49983 13.5H9.49483ZM17.8498 21.44L15.9098 19.5H22.4998C22.6324 19.5 22.7596 19.4473 22.8534 19.3536C22.9472 19.2598 22.9998 19.1326 22.9998 19V18C22.9998 17.8674 22.9472 17.7402 22.8534 17.6464C22.7596 17.5527 22.6324 17.5 22.4998 17.5H15.9098L17.8498 15.56C17.943 15.4663 17.9952 15.3396 17.9952 15.2075C17.9952 15.0754 17.943 14.9487 17.8498 14.855L17.1448 14.145C17.0984 14.0981 17.0431 14.0609 16.9821 14.0356C16.9212 14.0102 16.8558 13.9971 16.7898 13.9971C16.7238 13.9971 16.6585 14.0102 16.5975 14.0356C16.5366 14.0609 16.4813 14.0981 16.4348 14.145L12.7848 17.795C12.5986 17.9824 12.494 18.2358 12.494 18.5C12.494 18.7642 12.5986 19.0176 12.7848 19.205L16.4348 22.855C16.4813 22.9019 16.5366 22.9391 16.5975 22.9644C16.6585 22.9898 16.7238 23.0029 16.7898 23.0029C16.8558 23.0029 16.9212 22.9898 16.9821 22.9644C17.0431 22.9391 17.0984 22.9019 17.1448 22.855L17.8498 22.145C17.943 22.0513 17.9952 21.9246 17.9952 21.7925C17.9952 21.6604 17.943 21.5337 17.8498 21.44Z" fill="#454545"/>
</g>
</svg>
