<svg width="32" height="32" viewBox="0 0 32 32" fill="none" xmlns="http://www.w3.org/2000/svg">
<g id="SVG">
<path id="Vector" d="M16 24.9333C18.3693 24.9333 20.6415 23.9921 22.3168 22.3168C23.9921 20.6415 24.9333 18.3693 24.9333 16C24.9333 13.6307 23.9921 11.3585 22.3168 9.68318C20.6415 8.00785 18.3693 7.06667 16 7.06667C13.6307 7.06667 11.3585 8.00785 9.68318 9.68318C8.00785 11.3585 7.06667 13.6307 7.06667 16C7.06667 18.3693 8.00785 20.6415 9.68318 22.3168C11.3585 23.9921 13.6307 24.9333 16 24.9333ZM27 16C27 18.9174 25.8411 21.7153 23.7782 23.7782C21.7153 25.8411 18.9174 27 16 27C13.0826 27 10.2847 25.8411 8.22183 23.7782C6.15893 21.7153 5 18.9174 5 16C5 13.0826 6.15893 10.2847 8.22183 8.22183C10.2847 6.15893 13.0826 5 16 5C18.9174 5 21.7153 6.15893 23.7782 8.22183C25.8411 10.2847 27 13.0826 27 16Z" fill="#37169C"/>
<path id="Vector_2" d="M18.0868 18.1201L12.6668 21.4001C12.6004 21.4405 12.5238 21.4606 12.4461 21.4581C12.3685 21.4556 12.2933 21.4305 12.2297 21.386C12.1661 21.3415 12.1168 21.2794 12.0879 21.2073C12.0589 21.1352 12.0516 21.0563 12.0668 20.9801L13.2935 14.7601C13.3292 14.579 13.4022 14.4072 13.5077 14.2558C13.6133 14.1043 13.7492 13.9764 13.9068 13.8801L19.3335 10.6001C19.3998 10.5598 19.4765 10.5397 19.5541 10.5422C19.6317 10.5447 19.7069 10.5698 19.7706 10.6143C19.8342 10.6588 19.8835 10.7209 19.9124 10.793C19.9413 10.8651 19.9486 10.944 19.9335 11.0201L18.7068 17.2401C18.6703 17.4219 18.5963 17.594 18.4895 17.7455C18.3828 17.897 18.2456 18.0246 18.0868 18.1201ZM14.7268 17.8201L16.8001 16.5601L17.2668 14.1801L15.2001 15.4401L14.7335 17.8201H14.7268Z" fill="#37169C"/>
</g>
</svg>
