<svg width="32" height="32" viewBox="0 0 32 32" fill="none" xmlns="http://www.w3.org/2000/svg">
<g id="carbon:user-favorite">
<path id="Vector" d="M27.303 12C26.9472 12 26.5951 12.0714 26.2674 12.2098C25.9397 12.3483 25.643 12.551 25.395 12.806L25.002 13.211L24.605 12.806C24.3569 12.551 24.0603 12.3484 23.7326 12.21C23.4049 12.0716 23.0527 12.0003 22.697 12.0003C22.3413 12.0003 21.9891 12.0716 21.6614 12.21C21.3337 12.3484 21.0371 12.551 20.789 12.806C20.2831 13.3283 20.0003 14.0269 20.0003 14.754C20.0003 15.4811 20.2831 16.1797 20.789 16.702L25.002 21L29.211 16.702C29.7169 16.1797 29.9997 15.4811 29.9997 14.754C29.9997 14.0269 29.7169 13.3283 29.211 12.806C28.963 12.551 28.6663 12.3483 28.3386 12.2098C28.0109 12.0714 27.6588 12 27.303 12ZM2 30H4V25C4.00159 23.6744 4.52888 22.4036 5.46622 21.4662C6.40356 20.5289 7.6744 20.0016 9 20H15C16.3256 20.0016 17.5964 20.5289 18.5338 21.4662C19.4711 22.4036 19.9984 23.6744 20 25V30H22V25C21.9979 23.1441 21.2597 21.3649 19.9474 20.0526C18.6351 18.7403 16.8559 18.0021 15 18H9C7.14413 18.0021 5.36489 18.7403 4.05259 20.0526C2.7403 21.3649 2.00212 23.1441 2 25V30ZM12 4C12.9889 4 13.9556 4.29324 14.7779 4.84265C15.6001 5.39206 16.241 6.17295 16.6194 7.08658C16.9978 8.00021 17.0969 9.00555 16.9039 9.97545C16.711 10.9454 16.2348 11.8363 15.5355 12.5355C14.8363 13.2348 13.9454 13.711 12.9755 13.9039C12.0055 14.0969 11.0002 13.9978 10.0866 13.6194C9.17295 13.241 8.39206 12.6001 7.84265 11.7779C7.29324 10.9556 7 9.98891 7 9C7 7.67392 7.52678 6.40215 8.46447 5.46447C9.40215 4.52678 10.6739 4 12 4ZM12 2C10.6155 2 9.26215 2.41054 8.11101 3.17971C6.95986 3.94888 6.06266 5.04213 5.53284 6.32122C5.00303 7.6003 4.86441 9.00776 5.1345 10.3656C5.4046 11.7235 6.07128 12.9708 7.05025 13.9497C8.02922 14.9287 9.2765 15.5954 10.6344 15.8655C11.9922 16.1356 13.3997 15.997 14.6788 15.4672C15.9579 14.9373 17.0511 14.0401 17.8203 12.889C18.5895 11.7378 19 10.3845 19 9C19 7.14348 18.2625 5.36301 16.9497 4.05025C15.637 2.7375 13.8565 2 12 2Z" fill="#454545"/>
</g>
</svg>
